<svg xmlns="http://www.w3.org/2000/svg" version="1.1" xmlns:xlink="http://www.w3.org/1999/xlink" xmlns:svgjs="http://svgjs.dev/svgjs" width="1440" height="560" preserveAspectRatio="none" viewBox="0 0 1440 560"><g mask="url(&quot;#SvgjsMask2493&quot;)" fill="none"><rect width="1440" height="560" x="0" y="0" fill="rgba(243, 243, 243, 0.1)"></rect><g><path d="M72.5 275.5L101.5 304.5M159.5 275.5L188.5 304.5M130.5 275.5L159.5 304.5L188.5 333.5L217.5 333.5M-14.5 275.5L14.5 275.5L43.5 275.5L72.5 275.5L101.5 275.5L130.5 275.5L159.5 275.5L188.5 275.5L217.5 275.5" stroke="url(&quot;#SvgjsRadialGradient2494&quot;)" stroke-width="4.83"></path><path d="M212.67 275.5 a4.83 4.83 0 1 0 9.66 0 a4.83 4.83 0 1 0 -9.66 0zM96.67 304.5 a4.83 4.83 0 1 0 9.66 0 a4.83 4.83 0 1 0 -9.66 0zM183.67 304.5 a4.83 4.83 0 1 0 9.66 0 a4.83 4.83 0 1 0 -9.66 0zM212.67 333.5 a4.83 4.83 0 1 0 9.66 0 a4.83 4.83 0 1 0 -9.66 0z" fill="url(&quot;#SvgjsRadialGradient2494&quot;)"></path><path d="M246.5 362.5L275.5 333.5L304.5 333.5L333.5 333.5M449.5 362.5L478.5 333.5L507.5 333.5L536.5 362.5L565.5 362.5M72.5 362.5L101.5 333.5L130.5 333.5M362.5 362.5L391.5 362.5M-14.5 304.5L14.5 304.5L43.5 333.5L72.5 362.5L101.5 362.5L130.5 362.5L159.5 362.5L188.5 362.5L217.5 362.5L246.5 362.5L275.5 362.5L304.5 362.5L333.5 362.5L362.5 362.5L391.5 333.5L420.5 333.5L449.5 362.5L478.5 362.5L507.5 362.5" stroke="url(&quot;#SvgjsRadialGradient2494&quot;)" stroke-width="4.83"></path><path d="M502.67 362.5 a4.83 4.83 0 1 0 9.66 0 a4.83 4.83 0 1 0 -9.66 0zM328.67 333.5 a4.83 4.83 0 1 0 9.66 0 a4.83 4.83 0 1 0 -9.66 0zM560.67 362.5 a4.83 4.83 0 1 0 9.66 0 a4.83 4.83 0 1 0 -9.66 0zM125.67 333.5 a4.83 4.83 0 1 0 9.66 0 a4.83 4.83 0 1 0 -9.66 0zM386.67 362.5 a4.83 4.83 0 1 0 9.66 0 a4.83 4.83 0 1 0 -9.66 0z" fill="url(&quot;#SvgjsRadialGradient2494&quot;)"></path><path d="M275.5 246.5L304.5 275.5L333.5 275.5L362.5 275.5M246.5 246.5L275.5 275.5M-14.5 246.5L14.5 246.5L43.5 246.5L72.5 246.5L101.5 246.5L130.5 246.5L159.5 246.5L188.5 246.5L217.5 246.5L246.5 246.5L275.5 246.5L304.5 246.5L333.5 246.5L362.5 246.5" stroke="url(&quot;#SvgjsRadialGradient2494&quot;)" stroke-width="4.83"></path><path d="M357.67 246.5 a4.83 4.83 0 1 0 9.66 0 a4.83 4.83 0 1 0 -9.66 0zM357.67 275.5 a4.83 4.83 0 1 0 9.66 0 a4.83 4.83 0 1 0 -9.66 0zM270.67 275.5 a4.83 4.83 0 1 0 9.66 0 a4.83 4.83 0 1 0 -9.66 0z" fill="url(&quot;#SvgjsRadialGradient2494&quot;)"></path><path d="M681.5 420.5L710.5 420.5L739.5 420.5L768.5 420.5L797.5 420.5L826.5 420.5L855.5 420.5M275.5 391.5L304.5 420.5M246.5 391.5L275.5 420.5M565.5 420.5L594.5 391.5L623.5 391.5L652.5 391.5L681.5 391.5L710.5 391.5M217.5 391.5L246.5 420.5M449.5 391.5L478.5 391.5L507.5 391.5L536.5 391.5L565.5 391.5M159.5 391.5L188.5 420.5L217.5 420.5M-14.5 333.5L14.5 333.5L43.5 362.5L72.5 391.5L101.5 391.5L130.5 391.5L159.5 391.5L188.5 391.5L217.5 391.5L246.5 391.5L275.5 391.5L304.5 391.5L333.5 391.5L362.5 391.5L391.5 391.5L420.5 391.5L449.5 391.5L478.5 420.5L507.5 420.5L536.5 420.5L565.5 420.5L594.5 420.5L623.5 420.5L652.5 420.5L681.5 420.5L710.5 449.5L739.5 449.5L768.5 449.5" stroke="url(&quot;#SvgjsRadialGradient2494&quot;)" stroke-width="4.83"></path><path d="M763.67 449.5 a4.83 4.83 0 1 0 9.66 0 a4.83 4.83 0 1 0 -9.66 0zM850.67 420.5 a4.83 4.83 0 1 0 9.66 0 a4.83 4.83 0 1 0 -9.66 0zM299.67 420.5 a4.83 4.83 0 1 0 9.66 0 a4.83 4.83 0 1 0 -9.66 0zM270.67 420.5 a4.83 4.83 0 1 0 9.66 0 a4.83 4.83 0 1 0 -9.66 0zM705.67 391.5 a4.83 4.83 0 1 0 9.66 0 a4.83 4.83 0 1 0 -9.66 0zM241.67 420.5 a4.83 4.83 0 1 0 9.66 0 a4.83 4.83 0 1 0 -9.66 0zM560.67 391.5 a4.83 4.83 0 1 0 9.66 0 a4.83 4.83 0 1 0 -9.66 0zM212.67 420.5 a4.83 4.83 0 1 0 9.66 0 a4.83 4.83 0 1 0 -9.66 0z" fill="url(&quot;#SvgjsRadialGradient2494&quot;)"></path><path d="M-14.5 217.5L14.5 217.5L43.5 217.5L72.5 217.5L101.5 217.5L130.5 217.5L159.5 217.5L188.5 217.5L217.5 217.5L246.5 217.5L275.5 217.5" stroke="url(&quot;#SvgjsRadialGradient2494&quot;)" stroke-width="4.83"></path><path d="M270.67 217.5 a4.83 4.83 0 1 0 9.66 0 a4.83 4.83 0 1 0 -9.66 0z" fill="url(&quot;#SvgjsRadialGradient2494&quot;)"></path><path d="M101.5 420.5L130.5 420.5M420.5 420.5L449.5 449.5L478.5 478.5L507.5 478.5L536.5 478.5M623.5 449.5L652.5 478.5M362.5 420.5L391.5 449.5L420.5 449.5L449.5 478.5M333.5 420.5L362.5 449.5M246.5 449.5L275.5 478.5L304.5 478.5L333.5 478.5L362.5 478.5L391.5 507.5L420.5 507.5L449.5 507.5L478.5 507.5L507.5 507.5M565.5 449.5L594.5 478.5L623.5 478.5L652.5 507.5L681.5 507.5L710.5 507.5M-14.5 362.5L14.5 362.5L43.5 391.5L72.5 420.5L101.5 420.5L130.5 449.5L159.5 449.5L188.5 449.5L217.5 449.5L246.5 449.5L275.5 449.5L304.5 449.5L333.5 420.5L362.5 420.5L391.5 420.5L420.5 420.5L449.5 420.5L478.5 449.5L507.5 449.5L536.5 449.5L565.5 449.5L594.5 449.5L623.5 449.5L652.5 449.5L681.5 449.5L710.5 478.5L739.5 478.5L768.5 507.5L797.5 507.5" stroke="url(&quot;#SvgjsRadialGradient2494&quot;)" stroke-width="4.83"></path><path d="M792.67 507.5 a4.83 4.83 0 1 0 9.66 0 a4.83 4.83 0 1 0 -9.66 0zM125.67 420.5 a4.83 4.83 0 1 0 9.66 0 a4.83 4.83 0 1 0 -9.66 0zM531.67 478.5 a4.83 4.83 0 1 0 9.66 0 a4.83 4.83 0 1 0 -9.66 0zM647.67 478.5 a4.83 4.83 0 1 0 9.66 0 a4.83 4.83 0 1 0 -9.66 0zM444.67 478.5 a4.83 4.83 0 1 0 9.66 0 a4.83 4.83 0 1 0 -9.66 0zM357.67 449.5 a4.83 4.83 0 1 0 9.66 0 a4.83 4.83 0 1 0 -9.66 0zM502.67 507.5 a4.83 4.83 0 1 0 9.66 0 a4.83 4.83 0 1 0 -9.66 0zM705.67 507.5 a4.83 4.83 0 1 0 9.66 0 a4.83 4.83 0 1 0 -9.66 0z" fill="url(&quot;#SvgjsRadialGradient2494&quot;)"></path><path d="M333.5 217.5L362.5 217.5L391.5 217.5L420.5 217.5M246.5 188.5L275.5 159.5L304.5 159.5M-14.5 188.5L14.5 188.5L43.5 188.5L72.5 188.5L101.5 188.5L130.5 188.5L159.5 188.5L188.5 188.5L217.5 188.5L246.5 188.5L275.5 188.5L304.5 217.5L333.5 217.5L362.5 188.5" stroke="url(&quot;#SvgjsRadialGradient2494&quot;)" stroke-width="4.83"></path><path d="M357.67 188.5 a4.83 4.83 0 1 0 9.66 0 a4.83 4.83 0 1 0 -9.66 0zM415.67 217.5 a4.83 4.83 0 1 0 9.66 0 a4.83 4.83 0 1 0 -9.66 0zM299.67 159.5 a4.83 4.83 0 1 0 9.66 0 a4.83 4.83 0 1 0 -9.66 0z" fill="url(&quot;#SvgjsRadialGradient2494&quot;)"></path><path d="M188.5 478.5L217.5 507.5L246.5 507.5M159.5 478.5L188.5 507.5M72.5 449.5L101.5 478.5L130.5 507.5L159.5 507.5M-14.5 391.5L14.5 391.5L43.5 420.5L72.5 449.5L101.5 449.5L130.5 478.5L159.5 478.5L188.5 478.5L217.5 478.5" stroke="url(&quot;#SvgjsRadialGradient2494&quot;)" stroke-width="4.83"></path><path d="M212.67 478.5 a4.83 4.83 0 1 0 9.66 0 a4.83 4.83 0 1 0 -9.66 0zM241.67 507.5 a4.83 4.83 0 1 0 9.66 0 a4.83 4.83 0 1 0 -9.66 0zM183.67 507.5 a4.83 4.83 0 1 0 9.66 0 a4.83 4.83 0 1 0 -9.66 0zM154.67 507.5 a4.83 4.83 0 1 0 9.66 0 a4.83 4.83 0 1 0 -9.66 0z" fill="url(&quot;#SvgjsRadialGradient2494&quot;)"></path><path d="M275.5 130.5L304.5 101.5L333.5 72.5L362.5 72.5L391.5 72.5M246.5 130.5L275.5 101.5L304.5 72.5M188.5 159.5L217.5 130.5L246.5 101.5M-14.5 159.5L14.5 159.5L43.5 159.5L72.5 159.5L101.5 159.5L130.5 159.5L159.5 159.5L188.5 159.5L217.5 159.5L246.5 130.5L275.5 130.5L304.5 130.5L333.5 101.5L362.5 101.5" stroke="url(&quot;#SvgjsRadialGradient2494&quot;)" stroke-width="4.83"></path><path d="M357.67 101.5 a4.83 4.83 0 1 0 9.66 0 a4.83 4.83 0 1 0 -9.66 0zM386.67 72.5 a4.83 4.83 0 1 0 9.66 0 a4.83 4.83 0 1 0 -9.66 0zM299.67 72.5 a4.83 4.83 0 1 0 9.66 0 a4.83 4.83 0 1 0 -9.66 0zM241.67 101.5 a4.83 4.83 0 1 0 9.66 0 a4.83 4.83 0 1 0 -9.66 0z" fill="url(&quot;#SvgjsRadialGradient2494&quot;)"></path></g></g><defs><mask id="SvgjsMask2493"><rect width="1440" height="560" fill="#ffffff"></rect></mask><radialGradient cx="0" cy="560" r="1078.4" gradientUnits="userSpaceOnUse" id="SvgjsRadialGradient2494"><stop stop-color="rgba(255, 185, 9, 0.46)" offset="0"></stop><stop stop-color="rgba(221, 17, 51, 0.53)" offset="0.85"></stop></radialGradient></defs></svg>